<?xml version="1.0" encoding="iso-8859-1"?>
<!-- Generator: Adobe Illustrator 19.0.0, SVG Export Plug-In . SVG Version: 6.00 Build 0)  -->
<svg xmlns="http://www.w3.org/2000/svg" xmlns:xlink="http://www.w3.org/1999/xlink" version="1.1" id="Layer_1" x="0px" y="0px" viewBox="0 0 453.207 453.207" style="enable-background:new 0 0 453.207 453.207;" xml:space="preserve" width="512" height="512">
<g>
	<path style="fill:#05728f;" d="M315.317,248.633c23.66,23.24,39.33,55.78,39.33,91.81c0,70.65-57.58,105.26-128.22,105.26   c-70.65,0-127.87-34.61-127.87-105.26c0-36.24,14.47-68.95,38.95-92.22c16.68-15.86,26.01-37.63,26.01-60.65v-0.37   c0-35.34,29.73-63.85,65.36-62.58c33.93,1.2,60.78,30.12,60.78,64.08C289.657,211.353,299.157,232.763,315.317,248.633z"/>
	<path style="fill:#05728f;" d="M189.267,248.223c-10.26,23.27-16.32,55.98-16.32,92.22c0,70.57,23.93,105.18,53.48,105.26   c-70.65,0-127.87-34.61-127.87-105.26c0-36.24,14.47-68.95,38.95-92.22c16.68-15.86,26.01-37.63,26.01-60.65v-0.37   c0-34.58,28.47-62.62,63.07-62.62c-14.5,0.01-26.42,28.05-26.42,62.62v0.37C200.167,210.592,196.257,232.363,189.267,248.223z"/>
	<path style="fill:#9AD14B;" d="M232.137,100.502c-51.37,0-93.01-41.64-93.01-93c25.68,0,48.94,10.41,65.77,27.24   C221.727,51.573,232.137,74.823,232.137,100.502z"/>
	<path style="fill:#90BC42;" d="M232.137,100.502l-93.01-93c25.68,0,48.94,10.41,65.77,27.24   C221.727,51.573,232.137,74.823,232.137,100.502z"/>
	<path style="fill:#FFFFFF;" d="M320.783,389.63c-1.347,0-2.711-0.363-3.941-1.125c-3.521-2.18-4.609-6.803-2.428-10.325   c6.458-10.43,9.732-23.127,9.732-37.738c0-25.665-11.008-51.197-30.201-70.049c-15.293-15.018-26.107-33.602-31.272-53.742   c-1.029-4.013,1.39-8.099,5.402-9.128c4.011-1.025,8.099,1.39,9.128,5.402c4.485,17.492,13.909,33.664,27.252,46.767   c22.046,21.655,34.69,51.088,34.69,80.751c0,17.443-4.03,32.796-11.979,45.635C325.748,388.369,323.295,389.63,320.783,389.63z"/>
	<path style="fill:#FFFFFF;" d="M266.656,196.203c-4.142,0-7.5-3.358-7.5-7.5c0-17.915-14.07-32.988-31.364-33.6   c-0.405-0.014-0.807-0.021-1.206-0.021c-4.142,0-7.5-3.358-7.5-7.5s3.358-7.5,7.5-7.5c0.577,0,1.157,0.01,1.739,0.031   c25.27,0.894,45.831,22.691,45.831,48.59C274.156,192.845,270.799,196.203,266.656,196.203z"/>
	<circle style="fill:#FFFFFF;" cx="303.378" cy="401.427" r="7.5"/>
	<path style="fill:#333333;" d="M320.569,243.284c-15.095-14.826-23.409-34.209-23.409-54.578c0-35.139-25.91-65.141-59.32-70.688   v-1.395c0-20.846,16.729-37.805,37.293-37.805c4.142,0,7.5-3.358,7.5-7.5s-3.358-7.5-7.5-7.5c-14.095,0-27.28,5.507-37.124,15.508   c-0.175,0.178-0.338,0.365-0.51,0.544C227.956,34.317,187.477,0,139.129,0c-4.142,0-7.5,3.358-7.5,7.5   c0,52.542,40.531,95.791,91.968,100.137c-0.492,2.94-0.757,5.941-0.757,8.986v0.568c-17.024,0.88-32.945,7.754-45.379,19.754   c-13.826,13.344-21.441,31.192-21.441,50.259v0.369c0,21.084-8.412,40.693-23.686,55.215   c-26.616,25.307-41.274,59.987-41.274,97.653c0,35.695,13.976,65.125,40.417,85.109c23.939,18.094,56.771,27.657,94.947,27.657   c38.2,0,71.091-9.561,95.116-27.648c26.566-20.001,40.608-49.435,40.608-85.118C362.147,304.648,346.992,269.236,320.569,243.284z    M146.987,15.358c40.893,3.741,73.546,36.395,77.287,77.287C183.382,88.904,150.728,56.25,146.987,15.358z M226.423,438.207   c-58.188,0-120.363-25.683-120.363-97.767c0-33.515,13.002-64.335,36.61-86.782c18.281-17.381,28.35-40.851,28.35-66.086v-0.369   c0-14.958,5.987-28.974,16.857-39.465c10.511-10.144,24.181-15.662,38.688-15.662c0.679,0,1.36,0.012,2.042,0.036   c29.529,1.05,53.553,26.437,53.553,56.592c0,24.427,9.908,47.61,27.898,65.279c23.57,23.15,37.089,54.662,37.089,86.456   C347.147,412.524,284.785,438.207,226.423,438.207z"/>
</g>
</svg>
